<svg width="160" height="160" viewBox="0 0 160 160" fill="none" xmlns="http://www.w3.org/2000/svg">
<g clip-path="url(#clip0_66_2)">
<path d="M73.8674 3.46597C71.0674 5.46598 67.2008 8.13264 65.4674 9.46598C62.8008 11.5993 60.8008 11.866 51.4674 11.1993C39.0674 10.266 38.0008 10.7993 34.0008 21.5993C31.2008 29.066 30.2674 29.9993 19.4674 35.3326L11.3341 39.3326V51.3326C11.3341 63.1993 11.2008 63.466 6.5341 69.3326C-1.33257 79.1993 -1.33257 80.5326 7.3341 92.3993C11.8674 98.666 11.8674 98.9327 11.0674 109.066C10.2674 120.933 10.9341 121.999 21.6008 125.999C29.0674 128.799 31.0674 130.799 34.1341 138.666C38.1341 149.066 39.2008 149.733 50.9341 148.933C61.0674 148.133 61.3341 148.133 67.6008 152.666C79.0674 160.933 81.8674 161.199 90.1341 154.266C96.8008 148.666 99.0674 148.133 109.067 148.933C120.534 149.866 121.067 149.466 126.534 137.866C130.134 130.133 131.201 129.066 136.934 126.666C149.467 121.466 150.801 119.466 149.067 108.933C147.734 100.133 148.267 97.7327 153.467 91.1993C161.201 81.466 161.201 79.3326 152.667 67.466C148.134 61.1993 147.867 60.5326 148.801 53.466C150.534 39.9993 149.467 37.9993 138.801 34.1326C131.067 31.3326 129.067 29.3326 125.867 21.3326C121.867 10.9326 120.801 10.266 109.467 11.066C98.9341 11.866 97.0674 11.3326 89.3341 5.33264C82.1341 -0.267359 79.8674 -0.534025 73.8674 3.46597ZM116.801 52.3993C122.801 57.5993 121.867 62.266 111.867 74.266C76.0008 117.999 75.8674 118.133 68.9341 114.399C67.2008 113.466 59.8674 106.533 52.8008 99.066C42.1341 87.5993 40.0008 84.666 40.0008 81.066C40.0008 75.466 44.5341 70.666 49.8674 70.666C53.0674 70.666 55.8674 72.5326 63.3341 79.9993L72.6674 89.1993L85.3341 73.7326C102.934 52.1326 105.734 49.3326 109.734 49.3326C111.601 49.3326 114.801 50.7993 116.801 52.3993Z" fill="#206AED"/>
</g>
<defs>
<clipPath id="clip0_66_2">
<rect width="160" height="160" fill="white"/>
</clipPath>
</defs>
</svg>
