<svg width="141" height="83" fill="none" xmlns="http://www.w3.org/2000/svg"><path d="M2 36L61.625 5l54.563 31V23.5H137V83" stroke="#000" stroke-width="8"/><path d="M48.318 51.138v-6.192c0-.204.108-.306.324-.306h2.124c.204 0 .306.102.306.306V53.1c0 1.572-.342 2.718-1.026 3.438-.684.732-1.764 1.098-3.24 1.098-1.476 0-2.67-.33-3.582-.99-.18-.108-.21-.252-.09-.432l.954-1.458c.108-.156.246-.192.414-.108.684.408 1.41.612 2.178.612.576 0 1.002-.132 1.278-.396.288-.264.426-.714.414-1.35a5.988 5.988 0 01-1.638.252c-1.116 0-2.034-.342-2.754-1.026-.72-.696-1.08-1.638-1.08-2.826v-4.968c0-.204.108-.306.324-.306h2.124c.204 0 .306.102.306.306v4.914c0 1.02.498 1.53 1.494 1.53.468 0 .858-.084 1.17-.252zm5.86-6.066a10.747 10.747 0 013.816-.684c1.284 0 2.316.366 3.096 1.098.78.72 1.17 1.716 1.17 2.988v1.782c0 1.212-.36 2.178-1.08 2.898-.72.72-1.662 1.08-2.826 1.08-.588 0-1.14-.102-1.656-.306v3.168c0 .216-.102.324-.306.324h-2.124c-.216 0-.324-.108-.324-.324V45.414c0-.18.078-.294.234-.342zm3.78 6.768c1.008 0 1.512-.51 1.512-1.53v-1.89c0-1.056-.51-1.584-1.53-1.584-.468 0-.882.066-1.242.198v4.5c.348.204.768.306 1.26.306zm14.809-3.618v1.728c0 .204-.108.306-.324.306h-5.094v.288c0 .456.138.804.414 1.044.276.228.654.342 1.134.342.78 0 1.542-.216 2.286-.648.156-.12.294-.096.414.072l.936 1.242c.12.18.102.33-.054.45-1.032.792-2.256 1.188-3.672 1.188-1.236 0-2.25-.324-3.042-.972-.792-.648-1.188-1.572-1.188-2.772v-2.268c0-1.272.39-2.226 1.17-2.862.78-.648 1.782-.972 3.006-.972 1.188 0 2.154.318 2.898.954.744.636 1.116 1.596 1.116 2.88zm-2.646-.126c0-.468-.126-.822-.378-1.062-.252-.24-.588-.36-1.008-.36-.924 0-1.386.474-1.386 1.422v.378h2.772v-.378zM77.758 54h-2.124c-.216 0-.324-.108-.324-.324v-8.73c0-.204.108-.306.324-.306h2.124c.204 0 .306.102.306.306v3.042h2.502v-3.042c0-.204.108-.306.324-.306h2.124c.204 0 .306.102.306.306v8.73c0 .216-.102.324-.306.324H80.89c-.216 0-.324-.108-.324-.324v-3.24h-2.502v3.24c0 .216-.102.324-.306.324zm10.991 0h-2.196c-.216 0-.324-.108-.324-.324v-8.73c0-.204.108-.306.324-.306h2.07c.216 0 .324.102.324.306v2.826c0 .588-.012 1.35-.036 2.286h.018c.3-.672.768-1.554 1.404-2.646l1.422-2.556c.06-.144.18-.216.36-.216h2.232c.216 0 .324.102.324.306v8.73c0 .216-.108.324-.324.324h-2.07c-.204 0-.306-.108-.306-.324V50.85c0-.66.012-1.41.036-2.25h-.018c-.288.684-.762 1.584-1.422 2.7l-1.44 2.484c-.072.144-.198.216-.378.216zm16.741-5.778v1.728c0 .204-.108.306-.324.306h-5.094v.288c0 .456.138.804.414 1.044.276.228.654.342 1.134.342.78 0 1.542-.216 2.286-.648.156-.12.294-.096.414.072l.936 1.242c.12.18.102.33-.054.45-1.032.792-2.256 1.188-3.672 1.188-1.236 0-2.25-.324-3.042-.972-.792-.648-1.188-1.572-1.188-2.772v-2.268c0-1.272.39-2.226 1.17-2.862.78-.648 1.782-.972 3.006-.972 1.188 0 2.154.318 2.898.954.744.636 1.116 1.596 1.116 2.88zm-2.646-.126c0-.468-.126-.822-.378-1.062-.252-.24-.588-.36-1.008-.36-.924 0-1.386.474-1.386 1.422v.378h2.772v-.378z" fill="#FFC93E"/><path d="M47.872 68.608v4.752h7.704c.24 0 .36.112.36.336v1.944c0 .24-.12.36-.36.36H45.304c-.224 0-.336-.12-.336-.36V59.2c0-.24.112-.36.336-.36h9.936c.24 0 .36.12.36.36v1.944c0 .224-.12.336-.36.336h-7.368v4.488h6.744c.24 0 .36.12.36.36v1.92c0 .24-.12.36-.36.36h-6.744zM64.935 76h-2.209c-.224 0-.335-.12-.335-.36V59.2c0-.24.111-.36.336-.36h2.208c.224 0 .335.12.335.36v6.96l6-7.104c.145-.144.288-.216.433-.216h2.807c.16 0 .256.048.288.144.049.08.025.176-.072.288l-6.36 7.224 6.888 9.072c.096.128.12.232.072.312-.047.08-.143.12-.287.12H72.23c-.209 0-.352-.072-.432-.216l-5.329-7.176-1.2 1.296v5.736c0 .24-.111.36-.335.36zm18.649-10.488h3.624c2.048 0 3.568.416 4.56 1.248.992.816 1.488 2.12 1.488 3.912 0 1.76-.536 3.088-1.608 3.984-1.056.896-2.496 1.344-4.32 1.344H81.04c-.224 0-.336-.12-.336-.36V59.2c0-.24.112-.36.336-.36h10.488c.24 0 .36.12.36.36v1.92c0 .24-.12.36-.36.36h-7.944v4.032zm0 7.848h3.672c1.008 0 1.768-.208 2.28-.624.512-.416.768-1.104.768-2.064 0-.88-.24-1.52-.72-1.92-.48-.416-1.256-.624-2.328-.624h-3.672v5.232z" fill="#000"/><path d="M21.292 55.898h6.946c3.925 0 6.839.797 8.74 2.392 1.901 1.564 2.852 4.063 2.852 7.498 0 3.373-1.027 5.919-3.082 7.636C34.724 75.141 31.964 76 28.468 76H16.416c-.43 0-.644-.23-.644-.69V43.8c0-.46.215-.69.644-.69h20.102c.46 0 .69.23.69.69v3.68c0 .46-.23.69-.69.69H21.292v7.728zm0 15.042h7.038c1.932 0 3.389-.399 4.37-1.196.981-.797 1.472-2.116 1.472-3.956 0-1.687-.46-2.913-1.38-3.68-.92-.797-2.407-1.196-4.462-1.196h-7.038V70.94z" fill="#FFC93E"/></svg>